<?xml version="1.0" standalone="no"?>
<!DOCTYPE svg PUBLIC "-//W3C//DTD SVG 20010904//EN"
 "http://www.w3.org/TR/2001/REC-SVG-20010904/DTD/svg10.dtd">
<svg version="1.0" xmlns="http://www.w3.org/2000/svg"
 width="512.000000pt" height="512.000000pt" viewBox="0 0 512.000000 512.000000"
 preserveAspectRatio="xMidYMid meet">
<metadata>
Created by potrace 1.11, written by Peter Selinger 2001-2013
</metadata>
<g transform="translate(0.000000,512.000000) scale(0.100000,-0.100000)"
fill="#000000" stroke="none">
<path d="M551 4354 c-273 -58 -472 -249 -537 -514 -11 -45 -13 -289 -11 -1330
1 -701 5 -1284 9 -1295 4 -11 15 -47 26 -80 28 -85 67 -150 127 -210 61 -62
112 -96 197 -130 141 -56 62 -54 2103 -52 1034 1 1894 6 1910 10 163 43 280
122 372 251 12 17 27 36 32 43 49 57 106 245 136 447 3 21 7 48 10 60 5 22 6
30 30 166 8 47 21 126 30 175 19 104 21 116 29 170 4 23 9 52 11 65 3 14 10
52 15 85 5 33 12 71 15 85 3 14 7 40 10 59 2 18 7 41 9 50 3 9 8 35 11 57 3
23 12 77 19 120 18 97 14 209 -7 248 -48 89 -133 137 -292 166 -94 17 -214 18
-2020 19 -1552 0 -1932 -2 -1980 -13 -178 -39 -339 -184 -442 -398 -29 -62
-79 -204 -89 -254 -2 -12 -18 -82 -35 -155 -37 -162 -32 -139 -63 -279 -15
-63 -28 -124 -30 -135 -2 -11 -9 -38 -14 -60 -6 -22 -13 -51 -16 -65 -3 -14
-15 -68 -27 -120 -11 -52 -22 -104 -25 -115 -2 -11 -8 -33 -14 -50 -8 -26 -9
-23 -4 15 4 25 8 52 9 61 2 9 6 34 9 55 37 241 48 311 53 324 3 8 6 35 8 60 2
25 12 97 23 160 11 63 24 140 27 170 4 30 8 57 10 60 2 3 6 28 9 55 4 28 11
75 16 105 5 30 12 73 15 95 46 325 87 476 174 630 98 174 239 293 400 336 62
17 172 18 1891 17 1004 0 1863 -4 1910 -8 47 -5 120 -20 162 -33 l76 -24 -11
26 c-6 14 -30 56 -54 93 -98 150 -270 257 -453 283 -14 2 -586 4 -1272 4
l-1246 1 -7 33 c-10 42 -69 162 -103 207 -96 127 -233 217 -390 253 -87 20
-658 21 -751 1z"/>
</g>
</svg>
